# xmcd
#
# Track frame offsets:
#	150
#	14851
#	30383
#	42810
#	72175
#	85489
#	97363
#	112676
#	127914
#	143336
#	157142
#	171457
#	188492
#	204203
#	218899
#	233446
#	248888
#	271353
#	287816
#	302594
#	316401
#
# Disc length: 4399 seconds
#
# Revision: 1
# Processed by: cddbd v1.5.2PL0 Copyright (c) Steve Scherf et al.
# Submitted via: audiograbber 1.83.01
#
DISCID=23112d15
DTITLE=Various Artist - The Voice Clubbin
DYEAR=2005
DGENRE=Dance
TTITLE0=Sunset Strippers - Falling Stars
TTITLE1=Infernal - From Paris To Berlin
TTITLE2=Uniting Nations - Out Of Touch
TTITLE3=The Chemical Brothers - Galvanize (Album Version)
TTITLE4=Studio B - I See Girls (Crazy) (Tom Neville Radio Edit)
TTITLE5=Max Graham - Owner Of A Lonely Heart
TTITLE6=Paris Avenue - I Want You
TTITLE7=Angel City - Sunrise
TTITLE8=K-Klass - Dance With Me
TTITLE9=Armand Van Helden - My My My
TTITLE10=Bodies Without Organs - Conquering America (Johan S Radio Remix)
TTITLE11=Cheek Feat. Jonna - Liiku (Klubi Mix)
TTITLE12=Stereo Star - Utopia (Where I Want To Be)
TTITLE13=Moby - Lift Me Up
TTITLE14=Royal Gigolos - Somebody's Watching Me
TTITLE15=Vinylshakerz - One Night In Bangkok (Vinylshakerz Screen Cut)
TTITLE16=DJ Ensamble - Summer Night City (Beats And Styles Summer Nite Mix)
TTITLE17=C-4 - San Diego
TTITLE18=London MC - What Is My Name
TTITLE19=Darin - Money For Nothing
TTITLE20=Blue Lagoon - Break My Stride
EXTD=TR.
EXTT0=
EXTT1=
EXTT2=
EXTT3=
EXTT4=
EXTT5=
EXTT6=
EXTT7=
EXTT8=
EXTT9=
EXTT10=
EXTT11=
EXTT12=
EXTT13=
EXTT14=
EXTT15=
EXTT16=
EXTT17=
EXTT18=
EXTT19=
EXTT20=
PLAYORDER=
